# xmcd
#
# Track frame offsets: 
#        150
#        16020
#        36026
#        48430
#        75953
#        93651
#        111634
#        125267
#        142254
#        181013
#        196216
#        209929
#
# Disc length: 3056 seconds
#
# Revision: 0
# Processed by: cddbd v1.5.2PL0 Copyright (c) Steve Scherf et al.
# Submitted via: ExactAudioCopy v0.95b4
#
DISCID=a50bee0c
DTITLE=Memo Gonzalez and the Bluescasters - Dynomite
DYEAR=2009
DGENRE=Blues
TTITLE0=Bad Luck
TTITLE1=Dynomite Nitro
TTITLE2=One Day, One Kiss, One Night
TTITLE3=Please Come Home
TTITLE4=Strange Kind of Feeling
TTITLE5=Slip Away
TTITLE6=Double-Eyed Whammy
TTITLE7=Mary Lynn
TTITLE8=What's In A Name
TTITLE9=D Jump
TTITLE10=Lonely Boy
TTITLE11=Fat Boy
EXTD=
EXTT0=
EXTT1=
EXTT2=
EXTT3=
EXTT4=
EXTT5=
EXTT6=
EXTT7=
EXTT8=
EXTT9=
EXTT10=
EXTT11=
PLAYORDER=
